<svg width="64" height="40" viewBox="0 0 64 40" fill="none" xmlns="http://www.w3.org/2000/svg">
<path d="M6.06538 19C4.46538 19 3.26004 18.7173 2.44938 18.152C1.64938 17.576 1.24938 16.696 1.24938 15.512C1.24938 15.256 1.26538 14.984 1.29738 14.696C1.34004 14.3973 1.38804 14.1093 1.44138 13.832C1.49471 13.544 1.54271 13.2987 1.58538 13.096C1.62804 12.8827 1.65471 12.7387 1.66537 12.664L2.99338 12.92C2.96138 13.08 2.91338 13.3093 2.84938 13.608C2.79604 13.9067 2.74271 14.2213 2.68938 14.552C2.64671 14.8827 2.62538 15.2027 2.62538 15.512C2.62538 16.0453 2.73738 16.4827 2.96137 16.824C3.18538 17.1547 3.54804 17.3947 4.04938 17.544C4.56138 17.6933 5.23871 17.768 6.08138 17.768H11.3934L10.7374 18.312V7.544H12.0974V19H6.06538ZM5.90538 13.4C5.73471 13.1867 5.60138 12.9787 5.50538 12.776C5.40938 12.5627 5.36138 12.344 5.36138 12.12C5.36138 11.8 5.44138 11.5173 5.60138 11.272C5.76138 11.016 5.97471 10.8187 6.24138 10.68C6.50804 10.5307 6.79604 10.456 7.10538 10.456C7.27604 10.456 7.44671 10.4827 7.61738 10.536C7.79871 10.5787 7.95338 10.6427 8.08138 10.728L7.64938 11.496C7.56404 11.4427 7.47871 11.4107 7.39338 11.4C7.31871 11.3787 7.23871 11.368 7.15338 11.368C6.90804 11.368 6.71071 11.4373 6.56138 11.576C6.42271 11.7147 6.35338 11.896 6.35338 12.12C6.35338 12.248 6.38004 12.376 6.43338 12.504C6.49738 12.632 6.58804 12.7707 6.70538 12.92L5.90538 13.4ZM5.05738 13.416V12.52H8.30538V13.416H5.05738ZM16.1769 19V17.768H18.1129V19H16.1769ZM14.8169 19V7.544H16.1769V19H14.8169ZM18.1129 19V17.768C18.2515 17.768 18.3369 17.8213 18.3689 17.928C18.4115 18.0347 18.4329 18.184 18.4329 18.376C18.4329 18.5573 18.4115 18.7067 18.3689 18.824C18.3369 18.9413 18.2515 19 18.1129 19ZM18.1094 19V17.768H22.1094V19H18.1094ZM22.1094 19V17.768C22.248 17.768 22.3334 17.8213 22.3654 17.928C22.408 18.0347 22.4294 18.184 22.4294 18.376C22.4294 18.5573 22.408 18.7067 22.3654 18.824C22.3334 18.9413 22.248 19 22.1094 19ZM18.1094 19C17.9707 19 17.8854 18.9413 17.8534 18.824C17.8107 18.7067 17.7894 18.5573 17.7894 18.376C17.7894 18.184 17.8107 18.0347 17.8534 17.928C17.8854 17.8213 17.9707 17.768 18.1094 17.768V19ZM22.1094 19V17.768H26.1094V19H22.1094ZM26.1094 19V17.768C26.248 17.768 26.3334 17.8213 26.3654 17.928C26.408 18.0347 26.4294 18.184 26.4294 18.376C26.4294 18.5573 26.408 18.7067 26.3654 18.824C26.3334 18.9413 26.248 19 26.1094 19ZM22.1094 19C21.9707 19 21.8854 18.9413 21.8534 18.824C21.8107 18.7067 21.7894 18.5573 21.7894 18.376C21.7894 18.184 21.8107 18.0347 21.8534 17.928C21.8854 17.8213 21.9707 17.768 22.1094 17.768V19ZM29.3254 19V17.768H31.0854V19H29.3254ZM31.0854 19V17.768C31.224 17.768 31.3094 17.8213 31.3414 17.928C31.384 18.0347 31.4054 18.184 31.4054 18.376C31.4054 18.5573 31.384 18.7067 31.3414 18.824C31.3094 18.9413 31.224 19 31.0854 19ZM26.1094 19V17.768H28.6214L27.9494 18.312V11H29.3254V19H26.1094ZM26.1094 19C25.9707 19 25.8854 18.9413 25.8534 18.824C25.8107 18.7067 25.7894 18.5573 25.7894 18.376C25.7894 18.184 25.8107 18.0347 25.8534 17.928C25.8854 17.8213 25.9707 17.768 26.1094 17.768V19ZM26.7494 21.944V20.456H28.1254V21.944H26.7494ZM28.9414 21.944V20.456H30.3174V21.944H28.9414ZM31.0781 19V17.768H38.1021L37.6861 18.136V14.312C37.6861 13.6187 37.4675 13.1013 37.0301 12.76C36.6035 12.4187 35.9528 12.248 35.0781 12.248C34.8008 12.248 34.4061 12.2747 33.8941 12.328C33.3928 12.3707 32.8595 12.4293 32.2941 12.504L32.1341 11.4C32.5715 11.2933 33.0461 11.2027 33.5581 11.128C34.0808 11.0427 34.5875 11 35.0781 11C35.8888 11 36.5928 11.128 37.1901 11.384C37.7875 11.64 38.2461 12.0133 38.5661 12.504C38.8861 12.9947 39.0461 13.5973 39.0461 14.312V19H31.0781ZM31.0781 19C30.9395 19 30.8541 18.9413 30.8221 18.824C30.7795 18.7067 30.7581 18.5573 30.7581 18.376C30.7581 18.184 30.7795 18.0347 30.8221 17.928C30.8541 17.8213 30.9395 17.768 31.0781 17.768V19Z" fill="#2F3C6A"/>
<path d="M4.0023 33V26.03H4.5023V29.27H8.4623V26.03H8.96231V33H8.4623V29.73H4.5023V33H4.0023ZM10.1106 33L12.1806 26.03H13.4506L15.5206 33H15.0206L14.4206 30.98H11.2106L10.6106 33H10.1106ZM11.3406 30.52H14.2906L13.0906 26.48H12.5406L11.3406 30.52ZM18.1783 33V30.02L15.9283 26.03H16.4983L18.4283 29.5L20.3583 26.03H20.9283L18.6783 30.02V33H18.1783ZM23.4811 33V30.02L21.2311 26.03H21.8011L23.7311 29.5L25.6611 26.03H26.2311L23.9811 30.02V33H23.4811ZM26.6438 33L28.7138 26.03H29.9838L32.0538 33H31.5538L30.9538 30.98H27.7438L27.1438 33H26.6438ZM27.8738 30.52H30.8238L29.6238 26.48H29.0738L27.8738 30.52ZM33.2015 33V26.03H33.7015V29.34L34.9415 29.33L37.0015 26.03H37.5815L35.3915 29.53L37.7315 33H37.1115L34.9615 29.79L33.7015 29.8V33H33.2015Z" fill="#0AAEE0"/>
<circle cx="57.5" cy="15.5" r="0.5" fill="#0AAEE0"/>
<circle cx="57.5" cy="17.5" r="0.5" fill="#0AAEE0"/>
<circle cx="57.5" cy="19.5" r="0.5" fill="#0AAEE0"/>
<mask id="path-6-inside-1_3473_2241" fill="white">
<path d="M44 8C44 5.87827 45.0536 3.84344 46.9289 2.34314C48.8043 0.842853 51.3478 -1.90735e-06 54 -1.90735e-06C56.6522 -1.90735e-06 59.1957 0.842853 61.0711 2.34314C62.9464 3.84343 64 5.87827 64 8H62.9679C62.9679 6.09724 62.0231 4.27241 60.3413 2.92696C58.6595 1.58151 56.3784 0.825639 54 0.825639C51.6216 0.825639 49.3405 1.58151 47.6587 2.92696C45.9769 4.27241 45.032 6.09724 45.032 8H44Z"/>
</mask>
<path d="M44 8C44 5.87827 45.0536 3.84344 46.9289 2.34314C48.8043 0.842853 51.3478 -1.90735e-06 54 -1.90735e-06C56.6522 -1.90735e-06 59.1957 0.842853 61.0711 2.34314C62.9464 3.84343 64 5.87827 64 8H62.9679C62.9679 6.09724 62.0231 4.27241 60.3413 2.92696C58.6595 1.58151 56.3784 0.825639 54 0.825639C51.6216 0.825639 49.3405 1.58151 47.6587 2.92696C45.9769 4.27241 45.032 6.09724 45.032 8H44Z" stroke="#2F3C6A" stroke-width="62" mask="url(#path-6-inside-1_3473_2241)"/>
<mask id="path-7-inside-2_3473_2241" fill="white">
<path d="M48.0043 10.7093C47.9744 9.98758 48.0997 9.26749 48.3733 8.59016C48.647 7.91283 49.0634 7.29154 49.599 6.76175C50.1345 6.23196 50.7786 5.80405 51.4946 5.50245C52.2105 5.20085 52.9843 5.03147 53.7716 5.00399C54.559 4.9765 55.3446 5.09143 56.0835 5.34224C56.8224 5.59304 57.5001 5.9748 58.0781 6.46571C58.656 6.95663 59.1229 7.54708 59.4519 8.20337C59.7809 8.85966 59.9657 9.56893 59.9957 10.2907L59.0143 10.3249C58.9892 9.72133 58.8346 9.12816 58.5595 8.5793C58.2843 8.03043 57.8939 7.53662 57.4106 7.12607C56.9272 6.71551 56.3604 6.39624 55.7424 6.18649C55.1245 5.97674 54.4675 5.88061 53.809 5.9036C53.1505 5.92659 52.5034 6.06824 51.9047 6.32048C51.3059 6.57271 50.7672 6.93057 50.3193 7.37364C49.8715 7.81672 49.5232 8.33631 49.2943 8.90277C49.0655 9.46923 48.9607 10.0715 48.9857 10.6751L48.0043 10.7093Z"/>
</mask>
<path d="M48.0043 10.7093C47.9744 9.98758 48.0997 9.26749 48.3733 8.59016C48.647 7.91283 49.0634 7.29154 49.599 6.76175C50.1345 6.23196 50.7786 5.80405 51.4946 5.50245C52.2105 5.20085 52.9843 5.03147 53.7716 5.00399C54.559 4.9765 55.3446 5.09143 56.0835 5.34224C56.8224 5.59304 57.5001 5.9748 58.0781 6.46571C58.656 6.95663 59.1229 7.54708 59.4519 8.20337C59.7809 8.85966 59.9657 9.56893 59.9957 10.2907L59.0143 10.3249C58.9892 9.72133 58.8346 9.12816 58.5595 8.5793C58.2843 8.03043 57.8939 7.53662 57.4106 7.12607C56.9272 6.71551 56.3604 6.39624 55.7424 6.18649C55.1245 5.97674 54.4675 5.88061 53.809 5.9036C53.1505 5.92659 52.5034 6.06824 51.9047 6.32048C51.3059 6.57271 50.7672 6.93057 50.3193 7.37364C49.8715 7.81672 49.5232 8.33631 49.2943 8.90277C49.0655 9.46923 48.9607 10.0715 48.9857 10.6751L48.0043 10.7093Z" stroke="#2F3C6A" stroke-width="62" mask="url(#path-7-inside-2_3473_2241)"/>
<line x1="63.5" y1="8" x2="63.5" y2="33" stroke="#2F3C6A"/>
<path d="M48.5 10.5V33" stroke="#2F3C6A" stroke-linecap="square"/>
<line x1="59.5" y1="10" x2="59.5" y2="33" stroke="#2F3C6A"/>
<line x1="59" y1="32.5" x2="63" y2="32.5" stroke="#2F3C6A"/>
<path d="M49 33H57" stroke="#0AAEE0" stroke-linecap="round"/>
<path d="M44.9129 39.2841C44.7567 39.5118 44.4454 39.5697 44.2177 39.4134C43.99 39.2572 43.9321 38.9459 44.0884 38.7182L44.9129 39.2841ZM46.6222 35.9097L46.2099 35.6268L46.2218 35.6096L46.235 35.5933L46.6222 35.9097ZM44.0884 38.7182L46.2099 35.6268L47.0344 36.1927L44.9129 39.2841L44.0884 38.7182ZM46.235 35.5933L48.6131 32.6838L49.3873 33.3166L47.0093 36.2262L46.235 35.5933Z" fill="#0AAEE0"/>
<path d="M45 20V19.5H44V20H45ZM44 39C44 39.2761 44.2239 39.5 44.5 39.5C44.7761 39.5 45 39.2761 45 39H44ZM44 20V39H45V20H44Z" fill="#2F3C6A"/>
<path d="M44 11V11.5H45V11H44ZM44 8V11H45V8H44Z" fill="#2F3C6A"/>
</svg>
